# xmcd
#
# Track frame offsets: 
#        150
#        13083
#        27755
#        38854
#
# Disc length: 718 seconds
#
# Revision: 0
# Processed by: cddbd v1.5.2PL0 Copyright (c) Steve Scherf et al.
# Submitted via: ExactAudioCopy v1.0b3
#
DISCID=2602cc04
DTITLE=Adolphson and Falk - Vykort från kontoret
DYEAR=2014
DGENRE=Pop
TTITLE0=Vykort från kontoret
TTITLE1=Mejlbox
TTITLE2=Jag dricker mitt kaffe svart
TTITLE3=Alingsås
EXTD=
EXTT0=
EXTT1=
EXTT2=
EXTT3=
PLAYORDER=
